<svg width="200" height="200" viewBox="0 0 200 200" fill="none" xmlns="http://www.w3.org/2000/svg">
<path d="M117.644 69.8192C133.115 77.428 139.709 96.4499 132.1 111.921C128.803 118.515 123.731 123.588 117.644 126.378L91.774 139.059L77.3173 124.602C75.7956 123.081 73.0057 123.081 71.484 124.602C69.9622 126.124 69.9622 128.914 71.484 130.436L83.9116 142.863L50.1794 159.349C47.3895 160.871 43.8388 159.603 42.5707 156.813C41.8098 155.291 41.8098 153.262 42.5707 151.74L75.0347 85.0367L87.4624 97.9716C88.2232 98.7325 89.2377 98.9861 90.2523 98.9861C91.5204 98.9861 92.5349 98.7325 93.2958 97.9716C94.8175 96.4499 94.8175 93.66 93.2958 92.1382L79.3464 78.1888C88.4769 67.2829 104.202 63.2249 117.644 69.8192ZM140.977 60.9423C151.122 56.1234 163.55 58.6597 171.92 68.5511C161.267 81.486 144.528 81.9932 133.115 70.5801L131.086 68.5511C119.673 57.3916 120.18 40.6523 133.115 30C143.26 38.3696 145.796 50.5437 140.977 60.9423Z" fill="white"/>
</svg>
