<svg width="200" height="200" viewBox="0 0 200 200" fill="none" xmlns="http://www.w3.org/2000/svg">
<path d="M139.764 70.611C137.48 73.1489 133.673 73.1489 131.389 70.611C128.851 68.327 128.851 64.5203 131.389 62.2362L153.722 39.9034C156.006 37.3655 159.813 37.3655 162.097 39.9034C164.634 42.1874 164.634 45.9941 162.097 48.2782L139.764 70.611ZM117.177 96.4968L109.056 104.364C116.162 105.125 123.268 108.171 128.851 113.754L134.434 119.591L128.851 125.428C119.207 134.818 103.98 134.818 94.3367 125.428L91.2914 122.129L83.1703 130.25C90.2762 131.011 97.3821 134.057 102.965 139.64L108.802 145.477L102.965 151.06C93.5754 160.704 78.0947 160.704 68.451 151.06L65.4056 148.015L47.8946 165.526C44.8492 168.825 39.5198 168.825 36.4744 165.526C33.1752 162.48 33.1752 157.151 36.4744 154.105L53.9854 136.594L51.1938 133.803C41.8038 124.413 41.8038 108.932 51.1938 99.5422L57.0307 93.7052L62.8677 99.5422C68.1972 104.872 71.2426 111.47 72.0039 118.576L79.8712 110.709L77.0796 108.171C67.6896 98.5271 67.6896 83.0464 77.0796 73.6564L82.9165 67.8194L88.4998 73.6564C93.8292 78.9858 97.1284 85.5842 97.8897 92.6901L105.503 84.8228L102.965 82.285C93.5754 72.6413 93.5754 57.4143 102.965 47.7706L108.802 41.9336L114.386 47.7706C115.654 49.0395 116.67 50.0547 117.685 51.3236L129.359 39.9034C131.643 37.3655 135.449 37.3655 137.734 39.9034C140.271 42.1874 140.271 45.9941 137.734 48.2782L123.014 63.2513C124.283 68.5808 124.283 74.4178 122.76 79.7472C127.836 78.2245 133.419 77.9707 138.495 79.2396L153.722 64.0127C156.006 61.7286 159.813 61.7286 162.097 64.0127C164.634 66.5505 164.634 70.3572 162.097 72.6413L150.423 84.5691C151.945 85.5842 153.468 86.5993 154.737 87.8682L160.32 93.7052L154.737 99.5422C145.093 108.932 129.612 108.932 120.223 99.5422L117.177 96.4968Z" fill="white"/>
</svg>
