<svg width="200" height="200" viewBox="0 0 200 200" fill="none" xmlns="http://www.w3.org/2000/svg">
<path d="M164.933 105.353C167.545 107.964 169.286 111.446 169.286 114.929C169.286 118.701 167.545 122.183 164.933 124.795C162.321 127.406 158.839 128.857 155.357 128.857H43.9286C40.1562 128.857 36.6741 127.406 34.0625 124.795C31.4509 122.183 30 118.701 30 114.929C30 111.446 31.4509 107.964 34.0625 105.353C36.6741 102.741 40.1562 101 43.9286 101H155.357C158.839 101 162.321 102.741 164.933 105.353ZM163.192 139.594C164.062 140.464 164.643 141.625 164.643 142.786V147.429C164.643 152.362 162.612 157.295 159.129 160.777C155.647 164.259 150.714 166 146.071 166H53.2143C48.2812 166 43.3482 164.259 39.8661 160.777C36.3839 157.295 34.6429 152.362 34.6429 147.429V142.786C34.6429 141.625 34.933 140.464 35.8036 139.594C36.6741 138.723 37.8348 138.143 39.2857 138.143H160C161.161 138.143 162.321 138.723 163.192 139.594ZM39.8661 90.8438C38.4152 90.2634 37.5446 89.3929 36.3839 88.2321C35.5134 87.0714 34.933 85.9107 34.6429 84.4598C34.3527 83.0089 34.3527 81.558 34.6429 80.1071C41.0268 55.1518 67.7232 36 99.6429 36C131.272 36 157.969 55.1518 164.353 80.1071C164.643 81.558 164.643 83.0089 164.353 84.4598C164.062 85.9107 163.482 87.0714 162.612 88.2321C161.451 89.3929 160.58 90.2634 159.129 90.8438C157.969 91.4241 156.518 91.7143 155.067 91.7143H43.9286C42.4777 91.7143 41.0268 91.4241 39.8661 90.8438ZM133.304 60.6652C132.433 61.5357 132.143 62.6964 132.143 63.8571C132.143 65.0179 132.143 65.8884 132.723 66.4688C133.304 67.3393 133.884 67.9196 134.754 68.2098C135.625 68.5 136.786 68.7902 137.656 68.5C138.527 68.5 139.397 67.9196 139.978 67.3393C140.558 66.7589 141.138 65.8884 141.138 65.0179C141.429 63.8571 141.138 62.9866 140.848 62.1161C140.558 61.2455 139.978 60.6652 139.107 60.0848C138.527 59.5045 137.656 59.2143 136.786 59.2143C135.335 59.2143 134.174 59.7946 133.304 60.6652ZM96.1607 51.3795C95.2902 52.25 95 53.4107 95 54.5714C95 55.7321 95 56.6027 95.5804 57.183C96.1607 58.0536 96.7411 58.6339 97.6116 58.9241C98.4821 59.2143 99.6429 59.5045 100.513 59.2143C101.384 59.2143 102.254 58.6339 102.835 58.0536C103.415 57.4732 103.996 56.6027 103.996 55.7321C104.286 54.8616 103.996 53.7009 103.705 52.8304C103.415 51.9598 102.835 51.3795 101.964 50.7991C101.384 50.2188 100.513 49.9286 99.6429 49.9286C98.192 49.9286 97.0312 50.5089 96.1607 51.3795ZM59.0179 60.6652C58.1473 61.5357 57.8571 62.6964 57.8571 63.8571C57.8571 65.0179 57.8571 65.8884 58.4375 66.4688C59.0179 67.3393 59.5982 67.9196 60.4688 68.2098C61.3393 68.5 62.5 68.7902 63.3705 68.5C64.2411 68.5 65.1116 67.9196 65.692 67.3393C66.2723 66.7589 66.8527 65.8884 66.8527 65.0179C67.1429 63.8571 66.8527 62.9866 66.5625 62.1161C66.2723 61.2455 65.692 60.6652 64.8214 60.0848C64.2411 59.5045 63.3705 59.2143 62.5 59.2143C61.0491 59.2143 59.8884 59.7946 59.0179 60.6652Z" fill="white" fill-opacity="0.3"/>
</svg>
