<svg width="100" height="100" viewBox="0 0 100 100" fill="none" xmlns="http://www.w3.org/2000/svg">
<rect width="100" height="100" rx="4" fill="#4DC643"/>
<path d="M54.5 59H49.8594C36.5 59 25.5312 49.2969 23.2812 36.5H23C17.9375 36.5 14 32.5625 14 27.5C14 22.5781 17.9375 18.5 23 18.5H74.75C75.875 18.5 77 19.625 77 20.75C77 22.0156 75.875 23 74.75 23H23C20.4688 23 18.5 25.1094 18.5 27.5C18.5 30.0312 20.4688 32 23 32H54.5V59ZM41 44.375C42.8281 44.375 44.375 42.9688 44.375 41C44.375 39.1719 42.8281 37.625 41 37.625C39.0312 37.625 37.625 39.1719 37.625 41C37.625 42.9688 39.0312 44.375 41 44.375ZM45.6406 70.25C46.3438 68.4219 48.3125 67.5781 50 68.2812L59 71.6562V81.5H48.875C46.9062 81.5 45.5 80.0938 45.5 78.125C45.5 76.4375 46.7656 75.1719 48.4531 74.8906L47.6094 74.6094C45.9219 73.9062 44.9375 71.9375 45.6406 70.25ZM85.8594 54.3594C86.4219 61.1094 84.3125 67.4375 80.5156 72.2188L67.8594 66.5938C67.8594 66.3125 68 66.0312 68 65.75C68 65.4688 67.8594 65.1875 67.8594 64.7656L85.2969 52.1094C85.4375 52.8125 85.7188 53.5156 85.8594 54.3594ZM63.5 72.2188C64.3438 71.7969 65.1875 71.375 65.8906 70.6719L77.1406 75.5938C73.4844 78.8281 68.7031 80.9375 63.5 81.5V72.2188ZM83.8906 47.4688L65.6094 60.8281C64.4844 59.7031 62.9375 59 61.1094 59H58.8594V32H60.125C70.5312 32 80.0938 38.3281 83.8906 47.4688Z" fill="#66E55C"/>
</svg>
