<svg width="100" height="100" viewBox="0 0 100 100" fill="none" xmlns="http://www.w3.org/2000/svg">
<rect width="100" height="100" rx="4" fill="#FF9F2F"/>
<path d="M83.4688 49.8594C84.0312 53.5156 83.4688 57.3125 81.7812 60.5469L77.1406 69.6875C75.4531 72.9219 72.7812 75.5938 69.5469 77.2812L60.4062 81.9219C57.1719 83.6094 53.375 84.1719 49.8594 83.6094L39.7344 82.0625C36.0781 81.3594 32.7031 79.6719 30.1719 77.1406L22.8594 69.9688C20.3281 67.2969 18.6406 63.9219 17.9375 60.2656L16.3906 50.2812C15.8281 46.625 16.3906 42.8281 18.0781 39.5938L22.7188 30.4531C24.4062 27.2188 27.0781 24.5469 30.3125 22.8594L39.4531 18.2188C42.6875 16.5312 46.4844 15.9688 50 16.5312L60.125 18.0781C63.7812 18.6406 67.1562 20.4688 69.8281 23L77 30.1719C79.5312 32.8438 81.3594 36.2188 81.9219 39.875L83.4688 49.8594ZM38.75 65.75C41.1406 65.75 43.25 63.7812 43.1094 61.25C43.1094 59 41 56.8906 38.75 56.8906C36.3594 56.8906 34.25 58.8594 34.25 61.25C34.25 63.6406 36.2188 65.75 38.75 65.75ZM43.25 43.25C45.6406 43.25 47.6094 41.2812 47.6094 38.8906C47.6094 36.6406 45.6406 34.5312 43.25 34.5312C40.8594 34.5312 38.75 36.6406 38.75 38.8906C38.75 41.2812 40.7188 43.25 43.25 43.25ZM65.75 61.25C68.1406 61.25 70.25 59.2812 70.1094 56.75C70.1094 54.5 68 52.3906 65.75 52.3906C63.3594 52.3906 61.25 54.3594 61.25 56.75C61.25 59.1406 63.2188 61.25 65.75 61.25Z" fill="#FFB35B"/>
</svg>
