<svg width="100" height="100" viewBox="0 0 100 100" fill="none" xmlns="http://www.w3.org/2000/svg">
<rect width="100" height="100" rx="4" fill="#3CCEE2"/>
<path d="M50 29.75V32C50 33.2656 48.875 34.25 47.75 34.25C41.4219 34.25 36.5 29.3281 36.5 23V20.75C36.5 19.625 37.4844 18.5 38.75 18.5C44.9375 18.5 50 23.5625 50 29.75ZM28.625 23C30.4531 23 32 24.5469 32 26.375C32 28.3438 30.4531 29.75 28.625 29.75H21.875C19.9062 29.75 18.5 28.3438 18.5 26.375C18.5 24.5469 19.9062 23 21.875 23H28.625ZM33.125 33.125C34.9531 33.125 36.5 34.6719 36.5 36.5C36.5 38.4688 34.9531 39.875 33.125 39.875H17.375C15.4062 39.875 14 38.4688 14 36.5C14 34.6719 15.4062 33.125 17.375 33.125H33.125ZM18.5 46.625C18.5 44.7969 19.9062 43.25 21.875 43.25H28.625C30.4531 43.25 32 44.7969 32 46.625C32 48.5938 30.4531 50 28.625 50H21.875C19.9062 50 18.5 48.5938 18.5 46.625ZM52.25 20.75C52.25 19.625 53.2344 18.5 54.5 18.5C60.6875 18.5 65.75 23.5625 65.75 29.75V32C65.75 33.2656 64.625 34.25 63.5 34.25C57.1719 34.25 52.25 29.3281 52.25 23V20.75ZM81.5 29.75V32C81.5 33.2656 80.375 34.25 79.25 34.25C72.9219 34.25 68 29.3281 68 23V20.75C68 19.625 68.9844 18.5 70.25 18.5C76.4375 18.5 81.5 23.5625 81.5 29.75ZM81.5 43.25C81.5 49.5781 76.4375 54.5 70.25 54.5C68.9844 54.5 68 53.5156 68 52.25V50C68 43.8125 72.9219 38.75 79.25 38.75C80.375 38.75 81.5 39.875 81.5 41V43.25ZM63.5 38.75C64.625 38.75 65.75 39.875 65.75 41V43.25C65.75 49.5781 60.6875 54.5 54.5 54.5C53.2344 54.5 52.25 53.5156 52.25 52.25V50C52.25 43.8125 57.1719 38.75 63.5 38.75ZM50 43.25C50 49.5781 44.9375 54.5 38.75 54.5C37.4844 54.5 36.5 53.5156 36.5 52.25V50C36.5 43.8125 41.4219 38.75 47.75 38.75C48.875 38.75 50 39.875 50 41V43.25ZM14 63.5C14 61.1094 15.9688 59 18.5 59H81.5C83.8906 59 86 61.1094 86 63.5C86 71.9375 80.2344 78.9688 72.3594 80.9375C72.3594 81.2188 72.5 81.3594 72.5 81.5C72.5 84.0312 70.3906 86 68 86H32C29.4688 86 27.5 84.0312 27.5 81.5C27.5 81.3594 27.5 81.2188 27.5 80.9375C19.625 78.9688 14 71.9375 14 63.5Z" fill="#53DAED"/>
</svg>
