<svg width="100" height="100" viewBox="0 0 100 100" fill="none" xmlns="http://www.w3.org/2000/svg">
<rect width="100" height="100" rx="4" fill="#DD3F65"/>
<path d="M28.0625 29.8906C52.8125 30.1719 69.5469 46.625 70.1094 71.2344L16.8125 86C15.9688 86.2813 15.125 86 14.5625 85.4375C14 84.875 13.8594 84.0313 14 83.1875L28.0625 29.8906ZM31.8594 72.5C34.3906 72.5 36.5 70.5313 36.3594 68C36.3594 65.75 34.25 63.6406 31.8594 63.6406C29.3281 63.6406 27.3594 65.75 27.3594 68.1406C27.3594 70.5313 29.3281 72.5 31.8594 72.5ZM38.6094 52.25C41.1406 52.25 43.25 50.2813 43.1094 47.75C43.1094 45.3594 41 43.25 38.6094 43.25C36.0781 43.25 34.1094 45.2188 34.1094 47.75C34.1094 50.1406 36.0781 52.25 38.6094 52.25ZM52.25 65.75C54.6406 65.75 56.75 63.7813 56.75 61.25C56.75 58.8594 54.6406 56.75 52.25 56.75C49.7188 56.75 47.75 58.8594 47.75 61.25C47.75 63.6406 49.7188 65.75 52.25 65.75ZM36.2188 14.1406C61.8125 16.5313 82.9062 37.3438 85.8594 62.5156C86.1406 64.9063 84.7344 67.0156 82.625 67.5781L74.6094 69.8281C73.4844 43.8125 55.625 26.2344 29.1875 25.3906L31.2969 17.5156C31.8594 15.2656 33.9688 13.8594 36.2188 14.1406Z" fill="#FF517A"/>
</svg>
