<svg width="100" height="100" viewBox="0 0 100 100" fill="none" xmlns="http://www.w3.org/2000/svg">
<rect width="100" height="100" rx="4" fill="#B955C2"/>
<path d="M81.6406 52.1094C82.9062 53.375 83.75 55.0625 83.75 56.75C83.75 58.5781 82.9062 60.2656 81.6406 61.5312C80.375 62.7969 78.6875 63.5 77 63.5H23C21.1719 63.5 19.4844 62.7969 18.2188 61.5312C16.9531 60.2656 16.25 58.5781 16.25 56.75C16.25 55.0625 16.9531 53.375 18.2188 52.1094C19.4844 50.8438 21.1719 50 23 50H77C78.6875 50 80.375 50.8438 81.6406 52.1094ZM80.7969 68.7031C81.2188 69.125 81.5 69.6875 81.5 70.25V72.5C81.5 74.8906 80.5156 77.2812 78.8281 78.9688C77.1406 80.6562 74.75 81.5 72.5 81.5H27.5C25.1094 81.5 22.7188 80.6562 21.0312 78.9688C19.3438 77.2812 18.5 74.8906 18.5 72.5V70.25C18.5 69.6875 18.6406 69.125 19.0625 68.7031C19.4844 68.2812 20.0469 68 20.75 68H79.25C79.8125 68 80.375 68.2812 80.7969 68.7031ZM21.0312 45.0781C20.3281 44.7969 19.9062 44.375 19.3438 43.8125C18.9219 43.25 18.6406 42.6875 18.5 41.9844C18.3594 41.2812 18.3594 40.5781 18.5 39.875C21.5938 27.7812 34.5312 18.5 50 18.5C65.3281 18.5 78.2656 27.7812 81.3594 39.875C81.5 40.5781 81.5 41.2812 81.3594 41.9844C81.2188 42.6875 80.9375 43.25 80.5156 43.8125C79.9531 44.375 79.5312 44.7969 78.8281 45.0781C78.2656 45.3594 77.5625 45.5 76.8594 45.5H23C22.2969 45.5 21.5938 45.3594 21.0312 45.0781ZM66.3125 30.4531C65.8906 30.875 65.75 31.4375 65.75 32C65.75 32.5625 65.75 32.9844 66.0312 33.2656C66.3125 33.6875 66.5938 33.9688 67.0156 34.1094C67.4375 34.25 68 34.3906 68.4219 34.25C68.8438 34.25 69.2656 33.9688 69.5469 33.6875C69.8281 33.4062 70.1094 32.9844 70.1094 32.5625C70.25 32 70.1094 31.5781 69.9688 31.1562C69.8281 30.7344 69.5469 30.4531 69.125 30.1719C68.8438 29.8906 68.4219 29.75 68 29.75C67.2969 29.75 66.7344 30.0312 66.3125 30.4531ZM48.3125 25.9531C47.8906 26.375 47.75 26.9375 47.75 27.5C47.75 28.0625 47.75 28.4844 48.0312 28.7656C48.3125 29.1875 48.5938 29.4688 49.0156 29.6094C49.4375 29.75 50 29.8906 50.4219 29.75C50.8438 29.75 51.2656 29.4688 51.5469 29.1875C51.8281 28.9062 52.1094 28.4844 52.1094 28.0625C52.25 27.6406 52.1094 27.0781 51.9688 26.6562C51.8281 26.2344 51.5469 25.9531 51.125 25.6719C50.8438 25.3906 50.4219 25.25 50 25.25C49.2969 25.25 48.7344 25.5312 48.3125 25.9531ZM30.3125 30.4531C29.8906 30.875 29.75 31.4375 29.75 32C29.75 32.5625 29.75 32.9844 30.0312 33.2656C30.3125 33.6875 30.5938 33.9688 31.0156 34.1094C31.4375 34.25 32 34.3906 32.4219 34.25C32.8438 34.25 33.2656 33.9688 33.5469 33.6875C33.8281 33.4062 34.1094 32.9844 34.1094 32.5625C34.25 32 34.1094 31.5781 33.9688 31.1562C33.8281 30.7344 33.5469 30.4531 33.125 30.1719C32.8438 29.8906 32.4219 29.75 32 29.75C31.2969 29.75 30.7344 30.0312 30.3125 30.4531Z" fill="#D770E0"/>
</svg>
