<svg width="100" height="100" viewBox="0 0 100 100" fill="none" xmlns="http://www.w3.org/2000/svg">
<rect width="100" height="100" rx="4" fill="#FF5D8E"/>
<path d="M39.25 23.125C39.25 21.2969 40.6562 19.75 42.625 19.75H44.875C46.7031 19.75 48.25 21.2969 48.25 23.125C48.25 25.0938 46.7031 26.5 44.875 26.5H42.625C40.6562 26.5 39.25 25.0938 39.25 23.125ZM39.25 34.375C39.25 32.5469 40.6562 31 42.625 31H44.875C46.7031 31 48.25 32.5469 48.25 34.375C48.25 36.3438 46.7031 37.75 44.875 37.75H42.625C40.6562 37.75 39.25 36.3438 39.25 34.375ZM12.25 45.625C12.25 43.7969 13.6562 42.25 15.625 42.25H17.875C19.7031 42.25 21.25 43.7969 21.25 45.625C21.25 47.5938 19.7031 49 17.875 49H15.625C13.6562 49 12.25 47.5938 12.25 45.625ZM84.8125 53.5C86.9219 53.5 88.75 55.3281 88.75 57.4375C88.75 67.7031 82 76.4219 72.7188 79.375C72.8594 79.7969 73 80.2188 73 80.5C73 83.0312 70.8906 85 68.5 85H32.5C29.9688 85 28 83.0312 28 80.5C28 80.2188 28 79.7969 28.1406 79.375C18.8594 76.4219 12.25 67.7031 12.25 57.4375C12.25 55.3281 13.9375 53.5 16.0469 53.5H84.8125ZM44.875 42.25C46.7031 42.25 48.25 43.7969 48.25 45.625C48.25 47.5938 46.7031 49 44.875 49H42.625C40.6562 49 39.25 47.5938 39.25 45.625C39.25 43.7969 40.6562 42.25 42.625 42.25H44.875ZM31.375 42.25C33.2031 42.25 34.75 43.7969 34.75 45.625C34.75 47.5938 33.2031 49 31.375 49H29.125C27.1562 49 25.75 47.5938 25.75 45.625C25.75 43.7969 27.1562 42.25 29.125 42.25H31.375ZM25.75 34.375C25.75 32.5469 27.1562 31 29.125 31H31.375C33.2031 31 34.75 32.5469 34.75 34.375C34.75 36.3438 33.2031 37.75 31.375 37.75H29.125C27.1562 37.75 25.75 36.3438 25.75 34.375ZM58.375 42.25C60.2031 42.25 61.75 43.7969 61.75 45.625C61.75 47.5938 60.2031 49 58.375 49H56.125C54.1562 49 52.75 47.5938 52.75 45.625C52.75 43.7969 54.1562 42.25 56.125 42.25H58.375ZM52.75 34.375C52.75 32.5469 54.1562 31 56.125 31H58.375C60.2031 31 61.75 32.5469 61.75 34.375C61.75 36.3438 60.2031 37.75 58.375 37.75H56.125C54.1562 37.75 52.75 36.3438 52.75 34.375ZM71.875 42.25C73.7031 42.25 75.25 43.7969 75.25 45.625C75.25 47.5938 73.7031 49 71.875 49H69.625C67.6562 49 66.25 47.5938 66.25 45.625C66.25 43.7969 67.6562 42.25 69.625 42.25H71.875ZM66.25 34.375C66.25 32.5469 67.6562 31 69.625 31H71.875C73.7031 31 75.25 32.5469 75.25 34.375C75.25 36.3438 73.7031 37.75 71.875 37.75H69.625C67.6562 37.75 66.25 36.3438 66.25 34.375ZM85.375 42.25C87.2031 42.25 88.75 43.7969 88.75 45.625C88.75 47.5938 87.2031 49 85.375 49H83.125C81.1562 49 79.75 47.5938 79.75 45.625C79.75 43.7969 81.1562 42.25 83.125 42.25H85.375ZM58.375 19.75C60.2031 19.75 61.75 21.2969 61.75 23.125C61.75 25.0938 60.2031 26.5 58.375 26.5H56.125C54.1562 26.5 52.75 25.0938 52.75 23.125C52.75 21.2969 54.1562 19.75 56.125 19.75H58.375Z" fill="#FF7FA5"/>
</svg>
