<svg width="200" height="200" viewBox="0 0 200 200" fill="none" xmlns="http://www.w3.org/2000/svg">
<path d="M167.594 98.8646C168.677 105.906 167.594 112.948 164.344 119.177L155.406 136.781C152.156 143.01 147.01 148.156 140.781 151.406L123.177 160.344C116.948 163.594 109.635 164.677 102.865 163.594L83.3646 160.615C76.3229 159.26 69.8229 156.01 64.9479 151.135L50.8646 137.052C45.9896 132.177 42.7396 125.677 41.3854 118.635L38.4062 99.4062C37.3229 92.3646 38.4062 85.0521 41.6563 78.8229L50.5938 61.2188C53.8438 54.9896 58.9896 49.8438 65.2188 46.5938L82.8229 37.6563C89.0521 34.4062 96.0938 33.3229 103.135 34.4062C103.135 52.2812 117.76 66.3646 135.635 66.3646C135.635 84.2396 149.719 98.8646 167.594 98.8646ZM81.4688 129.198C86.0729 129.198 90.1354 125.135 90.1354 120.531C90.1354 116.198 86.0729 112.135 81.4688 112.135C76.5938 112.135 72.8021 116.198 72.8021 120.531C72.8021 125.135 76.5938 129.198 81.4688 129.198ZM90.1354 85.8646C94.7396 85.8646 98.8021 82.0729 98.8021 77.4688C98.8021 73.1354 94.7396 69.0729 90.1354 69.0729C85.2604 69.0729 81.4688 73.1354 81.4688 77.4688C81.4688 82.0729 85.2604 85.8646 90.1354 85.8646ZM133.469 120.531C138.073 120.531 142.135 116.469 142.135 111.865C142.135 107.531 138.073 103.469 133.469 103.469C128.594 103.469 124.802 107.531 124.802 111.865C124.802 116.469 128.594 120.531 133.469 120.531Z" fill="white" fill-opacity="0.3"/>
</svg>
