<svg width="100" height="100" viewBox="0 0 100 100" fill="none" xmlns="http://www.w3.org/2000/svg">
<rect width="100" height="100" rx="4" fill="#227C88"/>
<path d="M55.9062 36.0781C64.4844 40.2969 68.1406 50.8438 63.9219 59.4219C62.0938 63.0781 59.2812 65.8906 55.9062 67.4375L41.5625 74.4688L33.5469 66.4531C32.7031 65.6094 31.1562 65.6094 30.3125 66.4531C29.4688 67.2969 29.4688 68.8438 30.3125 69.6875L37.2031 76.5781L18.5 85.7188C16.9531 86.5625 14.9844 85.8594 14.2812 84.3125C13.8594 83.4688 13.8594 82.3438 14.2812 81.5L32.2812 44.5156L39.1719 51.6875C39.5938 52.1094 40.1562 52.25 40.7188 52.25C41.4219 52.25 41.9844 52.1094 42.4062 51.6875C43.25 50.8438 43.25 49.2969 42.4062 48.4531L34.6719 40.7188C39.7344 34.6719 48.4531 32.4219 55.9062 36.0781ZM68.8438 31.1562C74.4688 28.4844 81.3594 29.8906 86 35.375C80.0938 42.5469 70.8125 42.8281 64.4844 36.5L63.3594 35.375C57.0312 29.1875 57.3125 19.9062 64.4844 14C70.1094 18.6406 71.5156 25.3906 68.8438 31.1562Z" fill="#2594A3"/>
</svg>
