<svg width="100" height="100" viewBox="0 0 100 100" fill="none" xmlns="http://www.w3.org/2000/svg">
<path d="M82.4665 52.6763C83.7723 53.9821 84.6429 55.7232 84.6429 57.4643C84.6429 59.3504 83.7723 61.0915 82.4665 62.3973C81.1607 63.7031 79.4196 64.4286 77.6786 64.4286H21.9643C20.0781 64.4286 18.3371 63.7031 17.0312 62.3973C15.7254 61.0915 15 59.3504 15 57.4643C15 55.7232 15.7254 53.9821 17.0312 52.6763C18.3371 51.3705 20.0781 50.5 21.9643 50.5H77.6786C79.4196 50.5 81.1607 51.3705 82.4665 52.6763ZM81.596 69.7969C82.0312 70.2321 82.3214 70.8125 82.3214 71.3929V73.7143C82.3214 76.1808 81.3058 78.6473 79.5647 80.3884C77.8237 82.1295 75.3571 83 73.0357 83H26.6071C24.1406 83 21.6741 82.1295 19.933 80.3884C18.192 78.6473 17.3214 76.1808 17.3214 73.7143V71.3929C17.3214 70.8125 17.4665 70.2321 17.9018 69.7969C18.3371 69.3616 18.9174 69.0714 19.6429 69.0714H80C80.5804 69.0714 81.1607 69.3616 81.596 69.7969ZM19.933 45.4219C19.2076 45.1317 18.7723 44.6964 18.192 44.1161C17.7567 43.5357 17.4665 42.9554 17.3214 42.2299C17.1763 41.5045 17.1763 40.779 17.3214 40.0536C20.5134 27.5759 33.8616 18 49.8214 18C65.6362 18 78.9844 27.5759 82.1763 40.0536C82.3214 40.779 82.3214 41.5045 82.1763 42.2299C82.0312 42.9554 81.7411 43.5357 81.3058 44.1161C80.7254 44.6964 80.2902 45.1317 79.5647 45.4219C78.9844 45.7121 78.2589 45.8571 77.5335 45.8571H21.9643C21.2388 45.8571 20.5134 45.7121 19.933 45.4219ZM66.6518 30.3326C66.2165 30.7679 66.0714 31.3482 66.0714 31.9286C66.0714 32.5089 66.0714 32.9442 66.3616 33.2344C66.6518 33.6696 66.942 33.9598 67.3772 34.1049C67.8125 34.25 68.3929 34.3951 68.8281 34.25C69.2634 34.25 69.6987 33.9598 69.9888 33.6696C70.279 33.3795 70.5692 32.9442 70.5692 32.5089C70.7143 31.9286 70.5692 31.4933 70.4241 31.058C70.279 30.6228 69.9888 30.3326 69.5536 30.0424C69.2634 29.7522 68.8281 29.6071 68.3929 29.6071C67.6674 29.6071 67.0871 29.8973 66.6518 30.3326ZM48.0804 25.6897C47.6451 26.125 47.5 26.7054 47.5 27.2857C47.5 27.8661 47.5 28.3013 47.7902 28.5915C48.0804 29.0268 48.3705 29.317 48.8058 29.4621C49.2411 29.6071 49.8214 29.7522 50.2567 29.6071C50.692 29.6071 51.1272 29.317 51.4174 29.0268C51.7076 28.7366 51.9978 28.3013 51.9978 27.8661C52.1429 27.4308 51.9978 26.8504 51.8527 26.4152C51.7076 25.9799 51.4174 25.6897 50.9821 25.3996C50.692 25.1094 50.2567 24.9643 49.8214 24.9643C49.096 24.9643 48.5156 25.2545 48.0804 25.6897ZM29.5089 30.3326C29.0737 30.7679 28.9286 31.3482 28.9286 31.9286C28.9286 32.5089 28.9286 32.9442 29.2187 33.2344C29.5089 33.6696 29.7991 33.9598 30.2344 34.1049C30.6696 34.25 31.25 34.3951 31.6853 34.25C32.1205 34.25 32.5558 33.9598 32.846 33.6696C33.1362 33.3795 33.4263 32.9442 33.4263 32.5089C33.5714 31.9286 33.4263 31.4933 33.2812 31.058C33.1362 30.6228 32.846 30.3326 32.4107 30.0424C32.1205 29.7522 31.6853 29.6071 31.25 29.6071C30.5246 29.6071 29.9442 29.8973 29.5089 30.3326Z" fill="#227C88"/>
</svg>
