<svg width="100" height="100" viewBox="0 0 100 100" fill="none" xmlns="http://www.w3.org/2000/svg">
<path d="M89.2789 52.6347C89.9042 53.51 90.1543 54.6354 89.9042 55.7609L87.1532 69.2658C86.653 72.1418 84.1521 74.0175 81.4011 74.0175C79.4003 74.0175 77.5246 73.1422 76.2742 71.3916L71.0223 63.6387C70.147 62.3883 69.7718 60.8877 69.7718 59.2621V54.0102L65.8954 50.0088V72.0168C65.8954 73.1422 64.895 74.0175 63.8947 74.0175H55.8918C54.8914 74.0175 53.891 73.1422 53.891 72.0168L54.0161 58.0117C52.7656 59.2621 51.3901 60.1375 49.7645 60.7627V64.0139C49.7645 65.1393 48.8892 66.0146 47.7638 66.0146C46.6384 66.0146 45.7631 65.1393 45.7631 64.0139V61.8881C43.3872 62.1382 42.887 62.0131 41.7616 61.8881V64.0139C41.7616 65.1393 40.8863 66.0146 39.8859 66.0146C38.7605 66.0146 37.8852 65.1393 37.8852 64.0139V60.7627C36.3846 60.1375 35.0091 59.2621 33.8837 58.0117V72.0168C33.8837 73.1422 32.8834 74.0175 31.883 74.0175H24.0051C22.8797 74.0175 22.0044 73.1422 22.0044 72.0168V34.0029C22.0044 33.5027 22.0044 33.0026 22.1294 32.3773C20.2537 33.1276 19.0033 35.0033 19.0033 37.004V50.0088C19.0033 54.5104 15.377 58.0117 11.0004 58.0117H10V54.0102C10 51.5093 11.1254 49.3835 13.0011 47.883V37.004C13.0011 31.0018 17.8779 26 24.0051 26H63.8947C67.646 26 71.2724 27.8757 73.5232 31.0018L81.7762 42.381C82.6515 41.2556 83.7769 40.1302 85.0274 39.5049C86.4029 38.8797 88.0285 39.755 88.0285 41.2556V50.8841L89.2789 52.6347ZM57.1422 39.0047C59.1429 37.004 57.3923 34.0029 54.3912 34.0029H33.5086C30.5075 34.0029 28.8819 37.004 30.7576 39.0047L33.6336 41.8808C36.3846 44.5068 40.136 46.0073 44.0124 46.0073C47.7638 46.0073 51.5152 44.5068 54.2662 41.8808L57.1422 39.0047ZM82.0263 62.0131C83.0267 62.0131 84.027 61.1378 84.027 60.0124C84.027 59.012 83.0267 58.0117 82.0263 58.0117C80.9009 58.0117 80.0256 59.012 80.0256 60.0124C80.0256 61.1378 80.9009 62.0131 82.0263 62.0131Z" fill="#227C88"/>
</svg>
