<svg width="100" height="100" viewBox="0 0 100 100" fill="none" xmlns="http://www.w3.org/2000/svg">
<path d="M82 39.4551C82 39.709 81.873 39.9629 81.873 40.2168C79.8418 38.9473 77.4297 38.4395 75.0176 38.4395C64.6074 38.4395 61.6875 47.834 61.6875 51.7695C61.6875 55.1973 62.957 58.752 65.4961 61.418C62.957 62.3066 60.418 62.6875 57.752 62.6875H46.707L41.502 67.8926C40.7402 68.6543 40.3594 69.6699 40.3594 70.6855C40.3594 72.4629 41.375 72.8437 41.375 75.3828C41.375 79.6992 37.8203 83 33.6309 83C31.7266 83 29.6953 82.2383 28.1719 80.8418C26.7754 79.3184 26.1406 77.4141 26.1406 75.5098C26.1406 74.875 26.1406 74.3672 26.2676 73.7324C25.7598 73.8594 25.125 73.8594 24.4902 73.8594C19.0312 73.8594 17 69.2891 17 66.3691C17 62.0527 20.4277 58.752 24.6172 58.752C27.0293 58.752 27.5371 59.6406 29.3145 59.6406C30.3301 59.6406 31.3457 59.2598 32.1074 58.498L37.3125 53.293V42.375C37.3125 34.25 40.7402 28.791 45.3105 24.2207C49.5 20.0312 54.959 18 60.418 18C66.0039 18 71.4629 20.0312 75.6523 24.2207C79.8418 28.5371 82 33.9961 82 39.4551Z" fill="#227C88"/>
</svg>
