<svg width="100" height="100" viewBox="0 0 100 100" fill="none" xmlns="http://www.w3.org/2000/svg">
<path d="M36.8965 36.5361C41.637 32.525 48.0792 29 55.8584 29C63.516 29 69.9582 32.525 74.6986 36.5361C79.4391 40.5473 82.8425 45.2877 84.5442 48.6911C85.1519 49.7851 85.1519 51.1221 84.5442 52.2161C82.8425 55.4979 79.4391 60.3599 74.6986 64.3711C69.9582 68.3822 63.516 71.7856 55.8584 71.7856C48.0792 71.7856 41.637 68.3822 36.8965 64.3711C34.9517 62.6694 33.25 60.8461 31.6699 59.1444L20.8519 65.465C19.2718 66.3159 17.327 66.0728 16.1115 64.8573C14.896 63.6418 14.6529 61.697 15.5037 60.2384L21.095 50.3928L15.5037 40.6688C14.6529 39.2102 14.896 37.2654 16.1115 36.0499C17.327 34.8344 19.2718 34.5913 20.8519 35.4422L31.6699 41.7628C33.25 40.0611 34.9517 38.2378 36.8965 36.5361ZM65.5824 46.5032C63.3945 46.5032 61.6928 48.3265 61.6928 50.3928C61.6928 52.5807 63.3945 54.2824 65.5824 54.2824C67.6487 54.2824 69.472 52.5807 69.472 50.3928C69.472 48.3265 67.6487 46.5032 65.5824 46.5032Z" fill="#227C88"/>
</svg>
