<svg width="100" height="100" viewBox="0 0 100 100" fill="none" xmlns="http://www.w3.org/2000/svg">
<path d="M34.0625 20.0625C34.0625 17.9043 35.8398 16 38.125 16H62.5C64.6582 16 66.5625 17.9043 66.5625 20.0625C66.5625 22.3477 64.6582 24.125 62.5 24.125H38.125C35.8398 24.125 34.0625 22.3477 34.0625 20.0625ZM30 36.3125C30 31.8691 33.5547 28.1875 38.125 28.1875H62.5C66.9434 28.1875 70.625 31.8691 70.625 36.3125V72.875C70.625 77.4453 66.9434 81 62.5 81H38.125C33.5547 81 30 77.4453 30 72.875V36.3125ZM62.5 44.4375H38.125V64.75H62.5V44.4375Z" fill="#227C88"/>
<path d="M53.714 50C56.2649 50 57.2534 52.625 57.2215 55C57.2534 58.1875 55.2127 62 52.1516 62C51.1313 62 50.6211 61.5 50.1109 61.5C49.6007 61.5 49.0906 62 48.0702 62C45.0092 62 42.9685 58.125 43.0004 55C43.0004 52.5937 44.0207 50 46.5716 50C47.5919 50.0313 49.0906 50.5312 50.1428 51.0312C51.1313 50.5312 52.6937 50 53.714 50ZM53.2039 47C53.2039 48.4062 52.056 49.5 50.653 49.5H49.6326V48.5C49.6326 47.125 50.7486 46 52.1835 46H53.2039V47Z" fill="#227C88"/>
</svg>
