<svg width="100" height="100" viewBox="0 0 100 100" fill="none" xmlns="http://www.w3.org/2000/svg">
<path d="M49.1931 35.8613C49.5744 37.5136 49.5744 39.166 49.3202 40.8183C48.9389 42.3436 48.1763 43.8688 47.1594 45.2669C45.38 47.3006 43.0921 48.6988 40.2958 49.3343V76.9158C40.2958 78.314 39.7874 79.585 38.8977 80.6019C37.8809 81.4916 36.6098 82 35.2117 82C33.9406 82 32.6696 81.4916 31.6528 80.6019C30.763 79.585 30.1275 78.314 30.1275 76.9158V49.3343C27.4583 48.8259 25.0434 47.3006 23.391 45.2669C22.3742 43.9959 21.6115 42.4707 21.2302 40.8183C20.8489 39.166 20.976 37.5136 21.3573 35.8613L25.1705 18.5751C25.2976 18.0667 25.5518 17.6854 25.9331 17.3041C26.4415 17.0499 26.8228 16.9228 27.3312 17.0499C27.8396 17.0499 28.3481 17.3041 28.7294 17.6854C28.9836 18.0667 29.2378 18.5751 29.2378 18.9564V37.2594H31.3986L33.5593 18.448C33.6864 18.0667 33.8135 17.6854 34.1948 17.4312C34.449 17.177 34.8304 17.0499 35.2117 17.0499C35.7201 17.0499 36.1014 17.177 36.3556 17.4312C36.7369 17.6854 36.864 18.0667 36.9911 18.448L39.1519 37.2594H41.3127V18.9564C41.3127 18.5751 41.5669 18.0667 41.8211 17.6854C42.2024 17.3041 42.7108 17.0499 43.2192 17.0499C43.7276 16.9228 44.109 17.0499 44.6174 17.3041C44.9987 17.6854 45.2529 18.0667 45.38 18.5751L49.1931 35.8613ZM78.0457 76.9158C78.0457 78.314 77.4102 79.585 76.5205 80.6019C75.5036 81.4916 74.2326 82 72.9616 82C71.5634 82 70.2924 81.4916 69.2755 80.6019C68.3858 79.585 67.8774 78.314 67.8774 76.9158V61.6634H65.7166C64.5727 61.6634 63.5559 61.5363 62.539 61.1549C61.5222 60.6465 60.6325 60.1381 59.8698 59.3755C59.1072 58.6129 58.5988 57.596 58.0904 56.7063C57.7091 55.6895 57.582 54.5455 57.582 53.5287V39.0389C57.7091 34.336 59.1072 29.7603 61.6493 25.9471C64.3185 22.0069 68.0045 19.0835 72.4531 17.3041C72.9616 17.0499 73.7242 16.9228 74.3597 17.0499C74.9952 17.0499 75.6307 17.3041 76.1392 17.6854C76.7747 18.0667 77.156 18.5751 77.5373 19.2106C77.7915 19.719 77.9186 20.3546 78.0457 20.9901V76.9158Z" fill="#227C88"/>
</svg>
