<svg width="100" height="100" viewBox="0 0 100 100" fill="none" xmlns="http://www.w3.org/2000/svg">
<path d="M77.2336 23.7664C80.0439 26.4429 80.713 30.0562 79.241 32.4651C75.2262 39.4241 85.5308 53.7434 69.0702 70.0702C52.7434 86.5308 38.4241 76.2262 31.4651 80.241C29.0562 81.713 25.4429 81.0439 22.7664 78.2336C19.9561 75.557 19.287 71.9438 20.759 69.5349C24.7738 62.5759 14.4692 48.2566 30.9298 31.9298C47.2566 15.4692 61.5759 25.7738 68.5349 21.759C70.9438 20.287 74.557 20.9561 77.2336 23.7664ZM48.3272 33.8034C49.5316 33.5357 50.2007 32.3313 49.9331 31.2607C49.6654 30.0562 48.461 29.3871 47.3904 29.6548C39.7623 31.5283 30.5283 40.7623 28.6548 48.3904C28.3871 49.461 29.0562 50.6654 30.1269 50.7993C30.2607 50.7993 30.3945 50.9331 30.6622 50.9331C31.7328 50.9331 32.5357 50.3978 32.8034 49.3272C34.2755 43.4388 42.4388 35.2755 48.3272 33.8034Z" fill="#227C88"/>
</svg>
