<svg width="100" height="100" viewBox="0 0 100 100" fill="none" xmlns="http://www.w3.org/2000/svg">
<path d="M69.8819 35.3055C68.7399 36.5744 66.8365 36.5744 65.6945 35.3055C64.4256 34.1635 64.4256 32.2601 65.6945 31.1181L76.8609 19.9517C78.0029 18.6828 79.9063 18.6828 81.0483 19.9517C82.3172 21.0937 82.3172 22.9971 81.0483 24.1391L69.8819 35.3055ZM58.5886 48.2484L54.5281 52.182C58.081 52.5627 61.634 54.0854 64.4256 56.877L67.2172 59.7955L64.4256 62.714C59.6037 67.409 51.9902 67.409 47.1684 62.714L45.6457 61.0644L41.5852 65.1249C45.1381 65.5056 48.6911 67.0283 51.4827 69.8199L54.4012 72.7384L51.4827 75.53C46.7877 80.3519 39.0473 80.3519 34.2255 75.53L32.7028 74.0073L23.9473 82.7628C22.4246 84.4124 19.7599 84.4124 18.2372 82.7628C16.5876 81.2401 16.5876 78.5754 18.2372 77.0527L26.9927 68.2972L25.5969 66.9014C20.9019 62.2064 20.9019 54.4661 25.5969 49.7711L28.5154 46.8526L31.4339 49.7711C34.0986 52.4358 35.6213 55.735 36.002 59.2879L39.9356 55.3543L38.5398 54.0854C33.8448 49.2635 33.8448 41.5232 38.5398 36.8282L41.4583 33.9097L44.2499 36.8282C46.9146 39.4929 48.5642 42.7921 48.9449 46.345L52.7516 42.4114L51.4827 41.1425C46.7877 36.3206 46.7877 28.7072 51.4827 23.8853L54.4012 20.9668L57.1928 23.8853C57.8272 24.5198 58.3348 25.0273 58.8424 25.6618L64.6794 19.9517C65.8214 18.6828 67.7247 18.6828 68.8668 19.9517C70.1357 21.0937 70.1357 22.9971 68.8668 24.1391L61.5071 31.6257C62.1415 34.2904 62.1415 37.2089 61.3802 39.8736C63.918 39.1122 66.7096 38.9854 69.2474 39.6198L76.8609 32.0063C78.0029 30.8643 79.9063 30.8643 81.0483 32.0063C82.3172 33.2753 82.3172 35.1786 81.0483 36.3206L75.2113 42.2845C75.9727 42.7921 76.734 43.2997 77.3685 43.9341L80.1601 46.8526L77.3685 49.7711C72.5466 54.4661 64.8062 54.4661 60.1113 49.7711L58.5886 48.2484Z" fill="#227C88"/>
</svg>
