<svg width="100" height="100" viewBox="0 0 100 100" fill="none" xmlns="http://www.w3.org/2000/svg">
<path d="M83.7969 49.4323C84.3385 52.9531 83.7969 56.474 82.1719 59.5885L77.7031 68.3906C76.0781 71.5052 73.5052 74.0781 70.3906 75.7031L61.5885 80.1719C58.474 81.7969 54.8177 82.3385 51.4323 81.7969L41.6823 80.3073C38.1615 79.6302 34.9115 78.0052 32.474 75.5677L25.4323 68.526C22.9948 66.0885 21.3698 62.8385 20.6927 59.3177L19.2031 49.7031C18.6615 46.1823 19.2031 42.526 20.8281 39.4115L25.2969 30.6094C26.9219 27.4948 29.4948 24.9219 32.6094 23.2969L41.4115 18.8281C44.526 17.2031 48.0469 16.6615 51.5677 17.2031C51.5677 26.1406 58.8802 33.1823 67.8177 33.1823C67.8177 42.1198 74.8594 49.4323 83.7969 49.4323ZM40.7344 64.599C43.0365 64.599 45.0677 62.5677 45.0677 60.2656C45.0677 58.099 43.0365 56.0677 40.7344 56.0677C38.2969 56.0677 36.401 58.099 36.401 60.2656C36.401 62.5677 38.2969 64.599 40.7344 64.599ZM45.0677 42.9323C47.3698 42.9323 49.401 41.0365 49.401 38.7344C49.401 36.5677 47.3698 34.5365 45.0677 34.5365C42.6302 34.5365 40.7344 36.5677 40.7344 38.7344C40.7344 41.0365 42.6302 42.9323 45.0677 42.9323ZM66.7344 60.2656C69.0365 60.2656 71.0677 58.2344 71.0677 55.9323C71.0677 53.7656 69.0365 51.7344 66.7344 51.7344C64.2969 51.7344 62.401 53.7656 62.401 55.9323C62.401 58.2344 64.2969 60.2656 66.7344 60.2656Z" fill="#227C88"/>
</svg>
