<svg width="100" height="100" viewBox="0 0 100 100" fill="none" xmlns="http://www.w3.org/2000/svg">
<path d="M75.2044 31.9999C78.7694 35.3103 81.1885 40.0211 81.1885 45.3686C81.1885 50.0795 79.406 54.1538 76.6049 57.4641L72.276 47.4058H60.8171V35.9469L50.7587 31.6179C54.069 28.6896 58.1433 27.0344 62.8542 27.0344C65.4006 27.0344 67.8197 27.671 69.9842 28.6896C71.3847 25.8885 71.2574 22.4508 69.4749 19.7771C68.4563 18.3765 68.8383 16.4667 70.2388 15.5755C71.6394 14.5569 73.4219 14.9389 74.4404 16.3394C77.6235 20.923 77.8781 27.0344 75.2044 31.9999ZM56.7428 51.48H69.6022L72.6579 58.61C63.8728 68.7957 46.0478 80 23.13 80C19.183 80 16 76.817 16 72.87C16 69.0504 19.183 65.74 23.13 65.74C39.9364 65.74 43.5014 45.6233 49.9948 35.6922L56.7428 38.6206V51.48Z" fill="#227C88"/>
</svg>
