<svg width="200" height="200" viewBox="0 0 200 200" fill="none" xmlns="http://www.w3.org/2000/svg">
<path d="M178.558 105.269C179.808 107.02 180.309 109.271 179.808 111.522L174.306 138.532C173.306 144.284 168.304 148.035 162.802 148.035C158.801 148.035 155.049 146.284 152.548 142.783L142.045 127.277C140.294 124.777 139.544 121.775 139.544 118.524V108.02L131.791 100.018V144.034C131.791 146.284 129.79 148.035 127.789 148.035H111.784C109.783 148.035 107.782 146.284 107.782 144.034L108.032 116.023C105.531 118.524 102.78 120.275 99.529 121.525V128.028C99.529 130.279 97.7784 132.029 95.5276 132.029C93.2767 132.029 91.5261 130.279 91.5261 128.028V123.776C86.7744 124.276 85.774 124.026 83.5232 123.776V128.028C83.5232 130.279 81.7725 132.029 79.7718 132.029C77.521 132.029 75.7704 130.279 75.7704 128.028V121.525C72.7693 120.275 70.0183 118.524 67.7674 116.023V144.034C67.7674 146.284 65.7667 148.035 63.766 148.035H48.0102C45.7594 148.035 44.0088 146.284 44.0088 144.034V68.0058C44.0088 67.0055 44.0088 66.0051 44.2589 64.7547C40.5075 66.2552 38.0066 70.0066 38.0066 74.008V100.018C38.0066 109.021 30.7539 116.023 22.0007 116.023H20V108.02C20 103.019 22.2508 98.7671 26.0022 95.766V74.008C26.0022 62.0037 35.7558 52 48.0102 52H127.789C135.292 52 142.545 55.7514 147.046 62.0037L163.552 84.762C165.303 82.5111 167.554 80.2603 170.055 79.0099C172.806 77.7594 176.057 79.51 176.057 82.5111V101.768L178.558 105.269ZM114.284 78.0095C118.286 74.008 114.785 68.0058 108.782 68.0058H67.0172C61.015 68.0058 57.7638 74.008 61.5152 78.0095L67.2673 83.7616C72.7693 89.0135 80.272 92.0146 88.0248 92.0146C95.5276 92.0146 103.03 89.0135 108.532 83.7616L114.284 78.0095ZM164.053 124.026C166.053 124.026 168.054 122.276 168.054 120.025C168.054 118.024 166.053 116.023 164.053 116.023C161.802 116.023 160.051 118.024 160.051 120.025C160.051 122.276 161.802 124.026 164.053 124.026Z" fill="white"/>
</svg>
