<svg width="200" height="200" viewBox="0 0 200 200" fill="none" xmlns="http://www.w3.org/2000/svg">
<path d="M33.5199 145.92L62.2425 132.448C74.9516 126.602 85.3731 116.689 92.4902 103.725L98.0822 93.5581C105.962 79.0697 117.654 67.8857 131.888 61.277L158.578 48.8221L149.681 39.1632C146.885 36.113 142.564 35.0962 138.751 36.8755L115.112 47.8053C102.149 53.9057 91.4735 64.073 84.1022 77.2905L78.7644 86.9494C71.9014 99.6585 61.7342 109.317 49.5334 114.909L32.249 123.043C29.1989 124.314 26.9112 127.11 26.1487 130.669C25.6403 134.481 26.4029 138.04 28.9447 140.836L33.5199 145.92ZM169.507 61.277C172.049 64.073 172.812 67.6315 172.303 71.4443C171.541 75.0028 169.253 77.7988 166.457 79.0697L148.919 87.2036C136.718 92.7956 126.551 102.454 119.688 115.164L114.35 124.823C106.979 138.04 96.3029 148.207 83.3396 154.308L59.7007 165.237C58.4298 165.746 57.1589 166 55.888 166C53.092 166 50.5501 164.983 48.7709 162.95L39.112 152.274L65.8011 139.819C79.7811 133.465 91.4735 122.281 99.6073 107.538L105.199 97.3708C112.316 84.4076 122.738 74.4945 135.193 68.6483L164.17 55.1766L169.507 61.277Z" fill="white"/>
</svg>
