<svg width="200" height="200" viewBox="0 0 200 200" fill="none" xmlns="http://www.w3.org/2000/svg">
<path d="M164 78.9102C164 79.418 163.746 79.9258 163.746 80.4336C159.684 77.8945 154.859 76.8789 150.035 76.8789C129.215 76.8789 123.375 95.668 123.375 103.539C123.375 110.395 125.914 117.504 130.992 122.836C125.914 124.613 120.836 125.375 115.504 125.375H93.4141L83.0039 135.785C81.4805 137.309 80.7187 139.34 80.7187 141.371C80.7187 144.926 82.75 145.687 82.75 150.766C82.75 159.398 75.6406 166 67.2617 166C63.4531 166 59.3906 164.477 56.3437 161.684C53.5508 158.637 52.2812 154.828 52.2812 151.02C52.2812 149.75 52.2812 148.734 52.5352 147.465C51.5195 147.719 50.25 147.719 48.9805 147.719C38.0625 147.719 34 138.578 34 132.738C34 124.105 40.8555 117.504 49.2344 117.504C54.0586 117.504 55.0742 119.281 58.6289 119.281C60.6602 119.281 62.6914 118.52 64.2148 116.996L74.625 106.586V84.75C74.625 68.5 81.4805 57.582 90.6211 48.4414C99 40.0625 109.918 36 120.836 36C132.008 36 142.926 40.0625 151.305 48.4414C159.684 57.0742 164 67.9922 164 78.9102Z" fill="white"/>
</svg>
