<svg width="200" height="200" viewBox="0 0 200 200" fill="none" xmlns="http://www.w3.org/2000/svg">
<path d="M73.7931 73.0722C83.274 65.0499 96.1583 58 111.717 58C127.032 58 139.916 65.0499 149.397 73.0722C158.878 81.0945 165.685 90.5754 169.088 97.3822C170.304 99.5701 170.304 102.244 169.088 104.432C165.685 110.996 158.878 120.72 149.397 128.742C139.916 136.764 127.032 143.571 111.717 143.571C96.1583 143.571 83.274 136.764 73.7931 128.742C69.9035 125.339 66.5001 121.692 63.3398 118.289L41.7039 130.93C38.5435 132.632 34.6539 132.146 32.2229 129.715C29.7919 127.284 29.3057 123.394 31.0074 120.477L42.1901 100.786L31.0074 81.3376C29.3057 78.4204 29.7919 74.5308 32.2229 72.0998C34.6539 69.6688 38.5435 69.1826 41.7039 70.8843L63.3398 83.5255C66.5001 80.1221 69.9035 76.4756 73.7931 73.0722ZM131.165 93.0064C126.789 93.0064 123.386 96.6529 123.386 100.786C123.386 105.161 126.789 108.565 131.165 108.565C135.297 108.565 138.944 105.161 138.944 100.786C138.944 96.6529 135.297 93.0064 131.165 93.0064Z" fill="white"/>
</svg>
