<svg width="200" height="200" viewBox="0 0 200 200" fill="none" xmlns="http://www.w3.org/2000/svg">
<path d="M68.2777 111.379H133.024L107.887 163.43C107.379 164.953 106.364 165.969 104.84 166.984C103.571 167.746 102.301 168 100.778 168C99.0003 168 97.7308 167.746 96.4613 166.984C94.9378 165.969 93.9222 164.953 93.4144 163.43L68.2777 111.379ZM141.91 79.6406C143.434 80.4023 144.703 81.1641 145.719 82.4336C146.989 83.4492 147.75 84.9727 148.512 86.2422C149.02 87.7656 149.274 89.2891 149.528 91.0664C149.528 92.5898 149.02 94.1133 148.512 95.6367C147.75 97.1602 146.989 98.4297 145.973 99.6992C144.703 100.715 143.434 101.73 141.91 102.238C140.387 102.746 138.864 103.254 137.34 103.254H63.9613C60.9144 103.254 57.6136 101.984 55.3285 99.6992C53.2972 97.4141 51.7738 94.1133 52.0277 91.0664C52.0277 87.7656 53.2972 84.7187 55.5824 82.4336C57.8675 80.1484 60.9144 78.8789 64.2152 78.8789H64.4691C64.2152 77.3555 64.2152 76.0859 64.2152 74.5625C64.2152 64.9141 68.0238 55.7734 74.8792 48.918C81.7347 42.0625 90.8753 38 100.524 38C110.426 38 119.567 42.0625 126.422 48.918C133.278 55.7734 137.086 64.9141 137.086 74.5625C137.086 76.0859 137.086 77.3555 136.832 78.8789H137.086C138.864 78.8789 140.387 79.1328 141.91 79.6406Z" fill="white"/>
</svg>
