<svg width="200" height="200" viewBox="0 0 200 200" fill="none" xmlns="http://www.w3.org/2000/svg">
<path d="M68.125 40.125C68.125 35.8086 71.6797 32 76.25 32H125C129.316 32 133.125 35.8086 133.125 40.125C133.125 44.6953 129.316 48.25 125 48.25H76.25C71.6797 48.25 68.125 44.6953 68.125 40.125ZM60 72.625C60 63.7383 67.1094 56.375 76.25 56.375H125C133.887 56.375 141.25 63.7383 141.25 72.625V145.75C141.25 154.891 133.887 162 125 162H76.25C67.1094 162 60 154.891 60 145.75V72.625ZM125 88.875H76.25V129.5H125V88.875Z" fill="white"/>
<path d="M107.428 100C112.53 100 114.507 105.25 114.443 110C114.507 116.375 110.425 124 104.303 124C102.263 124 101.242 123 100.222 123C99.2015 123 98.1811 124 96.1405 124C90.0184 124 85.937 116.25 86.0007 110C86.0007 105.187 88.0414 100 93.1432 100C95.1839 100.063 98.1811 101.062 100.286 102.062C102.263 101.062 105.387 100 107.428 100ZM106.408 94C106.408 96.8125 104.112 99 101.306 99H99.2653V97C99.2653 94.25 101.497 92 104.367 92H106.408V94Z" fill="white"/>
</svg>
