<svg width="200" height="200" viewBox="0 0 200 200" fill="none" xmlns="http://www.w3.org/2000/svg">
<path d="M98.3862 71.7225C99.1488 75.0272 99.1488 78.3319 98.6404 81.6366C97.8778 84.6871 96.3526 87.7376 94.3189 90.5339C90.76 94.6012 86.1842 97.3975 80.5917 98.6686V153.832C80.5917 156.628 79.5748 159.17 77.7954 161.204C75.7617 162.983 73.2196 164 70.4233 164C67.8813 164 65.3392 162.983 63.3055 161.204C61.5261 159.17 60.255 156.628 60.255 153.832V98.6686C54.9167 97.6517 50.0867 94.6012 46.782 90.5339C44.7483 87.9918 43.2231 84.9413 42.4605 81.6366C41.6978 78.3319 41.9521 75.0272 42.7147 71.7225L50.3409 37.1502C50.5951 36.1334 51.1035 35.3708 51.8662 34.6081C52.883 34.0997 53.6456 33.8455 54.6625 34.0997C55.6793 34.0997 56.6961 34.6081 57.4587 35.3708C57.9672 36.1334 58.4756 37.1502 58.4756 37.9128V74.5188H62.7971L67.1186 36.896C67.3728 36.1334 67.6271 35.3708 68.3897 34.8624C68.8981 34.3539 69.6607 34.0997 70.4233 34.0997C71.4402 34.0997 72.2028 34.3539 72.7112 34.8624C73.4738 35.3708 73.728 36.1334 73.9823 36.896L78.3038 74.5188H82.6253V37.9128C82.6253 37.1502 83.1337 36.1334 83.6422 35.3708C84.4048 34.6081 85.4216 34.0997 86.4384 34.0997C87.4553 33.8455 88.2179 34.0997 89.2347 34.6081C89.9974 35.3708 90.5058 36.1334 90.76 37.1502L98.3862 71.7225ZM156.091 153.832C156.091 156.628 154.82 159.17 153.041 161.204C151.007 162.983 148.465 164 145.923 164C143.127 164 140.585 162.983 138.551 161.204C136.772 159.17 135.755 156.628 135.755 153.832V123.327H131.433C129.145 123.327 127.112 123.073 125.078 122.31C123.044 121.293 121.265 120.276 119.74 118.751C118.214 117.226 117.198 115.192 116.181 113.413C115.418 111.379 115.164 109.091 115.164 107.057V78.0777C115.418 68.672 118.214 59.5205 123.299 51.8943C128.637 44.0138 136.009 38.1671 144.906 34.6081C145.923 34.0997 147.448 33.8455 148.719 34.0997C149.99 34.0997 151.261 34.6081 152.278 35.3708C153.549 36.1334 154.312 37.1502 155.075 38.4213C155.583 39.4381 155.837 40.7091 156.091 41.9802V153.832Z" fill="white"/>
</svg>
