<svg width="200" height="200" viewBox="0 0 200 200" fill="none" xmlns="http://www.w3.org/2000/svg">
<path d="M150.409 63.9998C157.539 70.6205 162.377 80.0423 162.377 90.7373C162.377 100.159 158.812 108.308 153.21 114.928L144.552 94.8115H121.634V71.8937L101.517 63.2359C108.138 57.3791 116.287 54.0688 125.708 54.0688C130.801 54.0688 135.639 55.342 139.968 57.3791C142.769 51.777 142.515 44.9016 138.95 39.5541C136.913 36.7531 137.677 32.9334 140.478 31.1509C143.279 29.1138 146.844 29.8777 148.881 32.6788C155.247 41.8459 155.756 54.0688 150.409 63.9998ZM113.486 102.96H139.204L145.316 117.22C127.746 137.591 92.0956 160 46.26 160C38.3661 160 32 153.634 32 145.74C32 138.101 38.3661 131.48 46.26 131.48C79.8728 131.48 87.0028 91.2465 99.9895 71.3844L113.486 77.2412V102.96Z" fill="white"/>
</svg>
