<svg width="200" height="200" viewBox="0 0 200 200" fill="none" xmlns="http://www.w3.org/2000/svg">
<path d="M133.315 66.5C153.628 66.5 161.499 87.8281 161.245 107.125C161.499 133.023 145.249 164 120.874 164C112.749 164 108.687 159.937 104.624 159.937C100.562 159.937 96.499 164 88.374 164C63.999 164 47.749 132.516 48.0029 107.125C48.0029 87.5742 56.1279 66.5 76.4404 66.5C84.5654 66.7539 96.499 70.8164 104.878 74.8789C112.749 70.8164 125.19 66.5 133.315 66.5ZM129.253 42.125C129.253 53.5508 120.112 62.4375 108.94 62.4375H100.815V54.3125C100.815 43.1406 109.702 34 121.128 34H129.253V42.125Z" fill="white"/>
</svg>
