<svg width="200" height="200" viewBox="0 0 200 200" fill="none" xmlns="http://www.w3.org/2000/svg">
<path d="M154.467 47.5329C160.088 52.8859 161.426 60.1125 158.482 64.9302C150.452 78.8481 171.062 107.487 138.14 140.14C105.487 173.062 76.8481 152.452 62.9302 160.482C58.1125 163.426 50.8859 162.088 45.5329 156.467C39.9122 151.114 38.5739 143.888 41.5181 139.07C49.5476 125.152 28.9385 96.5131 61.8596 63.8596C94.5131 30.9385 123.152 51.5476 137.07 43.5181C141.888 40.5739 149.114 41.9122 154.467 47.5329ZM96.6544 67.6067C99.0632 67.0714 100.401 64.6626 99.8662 62.5214C99.3309 60.1125 96.922 58.7742 94.7808 59.3095C79.5246 63.0567 61.0567 81.5246 57.3095 96.7808C56.7742 98.922 58.1125 101.331 60.2537 101.599C60.5214 101.599 60.789 101.866 61.3243 101.866C63.4655 101.866 65.0714 100.796 65.6067 98.6544C68.5509 86.8777 84.8777 70.5509 96.6544 67.6067Z" fill="white"/>
</svg>
