<svg width="200" height="200" viewBox="0 0 200 200" fill="none" xmlns="http://www.w3.org/2000/svg">
<path d="M100 38C128.437 38 152 87.2917 152 116C152 144.979 128.437 168 100 168C71.0208 168 48 144.708 48 116C48 87.2917 71.2917 38 100 38ZM91.3333 71.0417C92.6875 69.4167 92.4167 66.7083 90.5208 65.0833C88.625 63.7292 85.9167 64 84.5625 65.625C75.0833 77.2708 65.3333 98.9375 65.3333 116C65.3333 118.437 67.2292 120.333 69.6667 120.333C71.8333 120.333 74 118.437 74 116C74 101.375 82.6667 81.875 91.3333 71.0417Z" fill="white"/>
</svg>
