<svg width="200" height="200" viewBox="0 0 200 200" fill="none" xmlns="http://www.w3.org/2000/svg">
<path d="M77.7931 42.7241C77.7931 39.0819 80.5948 36 84.5172 36H89C92.6422 36 95.7241 39.0819 95.7241 42.7241C95.7241 46.6466 92.6422 49.4483 89 49.4483H84.5172C80.5948 49.4483 77.7931 46.6466 77.7931 42.7241ZM77.7931 65.1379C77.7931 61.4957 80.5948 58.4138 84.5172 58.4138H89C92.6422 58.4138 95.7241 61.4957 95.7241 65.1379C95.7241 69.0603 92.6422 71.8621 89 71.8621H84.5172C80.5948 71.8621 77.7931 69.0603 77.7931 65.1379ZM24 87.5517C24 83.9095 26.8017 80.8276 30.7241 80.8276H35.2069C38.8491 80.8276 41.931 83.9095 41.931 87.5517C41.931 91.4741 38.8491 94.2759 35.2069 94.2759H30.7241C26.8017 94.2759 24 91.4741 24 87.5517ZM168.569 103.241C172.772 103.241 176.414 106.884 176.414 111.086C176.414 131.539 162.966 148.909 144.474 154.793C144.754 155.634 145.034 156.474 145.034 157.034C145.034 162.078 140.832 166 136.069 166H64.3448C59.3017 166 55.3793 162.078 55.3793 157.034C55.3793 156.474 55.3793 155.634 55.6595 154.793C37.1681 148.909 24 131.539 24 111.086C24 106.884 27.3621 103.241 31.5647 103.241H168.569ZM89 80.8276C92.6422 80.8276 95.7241 83.9095 95.7241 87.5517C95.7241 91.4741 92.6422 94.2759 89 94.2759H84.5172C80.5948 94.2759 77.7931 91.4741 77.7931 87.5517C77.7931 83.9095 80.5948 80.8276 84.5172 80.8276H89ZM62.1034 80.8276C65.7457 80.8276 68.8276 83.9095 68.8276 87.5517C68.8276 91.4741 65.7457 94.2759 62.1034 94.2759H57.6207C53.6983 94.2759 50.8966 91.4741 50.8966 87.5517C50.8966 83.9095 53.6983 80.8276 57.6207 80.8276H62.1034ZM50.8966 65.1379C50.8966 61.4957 53.6983 58.4138 57.6207 58.4138H62.1034C65.7457 58.4138 68.8276 61.4957 68.8276 65.1379C68.8276 69.0603 65.7457 71.8621 62.1034 71.8621H57.6207C53.6983 71.8621 50.8966 69.0603 50.8966 65.1379ZM115.897 80.8276C119.539 80.8276 122.621 83.9095 122.621 87.5517C122.621 91.4741 119.539 94.2759 115.897 94.2759H111.414C107.491 94.2759 104.69 91.4741 104.69 87.5517C104.69 83.9095 107.491 80.8276 111.414 80.8276H115.897ZM104.69 65.1379C104.69 61.4957 107.491 58.4138 111.414 58.4138H115.897C119.539 58.4138 122.621 61.4957 122.621 65.1379C122.621 69.0603 119.539 71.8621 115.897 71.8621H111.414C107.491 71.8621 104.69 69.0603 104.69 65.1379ZM142.793 80.8276C146.435 80.8276 149.517 83.9095 149.517 87.5517C149.517 91.4741 146.435 94.2759 142.793 94.2759H138.31C134.388 94.2759 131.586 91.4741 131.586 87.5517C131.586 83.9095 134.388 80.8276 138.31 80.8276H142.793ZM131.586 65.1379C131.586 61.4957 134.388 58.4138 138.31 58.4138H142.793C146.435 58.4138 149.517 61.4957 149.517 65.1379C149.517 69.0603 146.435 71.8621 142.793 71.8621H138.31C134.388 71.8621 131.586 69.0603 131.586 65.1379ZM169.69 80.8276C173.332 80.8276 176.414 83.9095 176.414 87.5517C176.414 91.4741 173.332 94.2759 169.69 94.2759H165.207C161.284 94.2759 158.483 91.4741 158.483 87.5517C158.483 83.9095 161.284 80.8276 165.207 80.8276H169.69ZM115.897 36C119.539 36 122.621 39.0819 122.621 42.7241C122.621 46.6466 119.539 49.4483 115.897 49.4483H111.414C107.491 49.4483 104.69 46.6466 104.69 42.7241C104.69 39.0819 107.491 36 111.414 36H115.897Z" fill="white" fill-opacity="0.3"/>
</svg>
