<svg width="200" height="200" viewBox="0 0 200 200" fill="none" xmlns="http://www.w3.org/2000/svg">
<path d="M103.571 121.571H93.9955C66.4286 121.571 43.7946 101.549 39.1518 75.1429H38.5714C28.125 75.1429 20 67.0179 20 56.5714C20 46.4152 28.125 38 38.5714 38H145.357C147.679 38 150 40.3214 150 42.6429C150 45.2545 147.679 47.2857 145.357 47.2857H38.5714C33.3482 47.2857 29.2857 51.6384 29.2857 56.5714C29.2857 61.7946 33.3482 65.8571 38.5714 65.8571H103.571V121.571ZM75.7143 91.3929C79.4866 91.3929 82.6786 88.4911 82.6786 84.4286C82.6786 80.6562 79.4866 77.4643 75.7143 77.4643C71.6518 77.4643 68.75 80.6562 68.75 84.4286C68.75 88.4911 71.6518 91.3929 75.7143 91.3929ZM85.2902 144.786C86.7411 141.013 90.8036 139.272 94.2857 140.723L112.857 147.688V168H91.9643C87.9018 168 85 165.098 85 161.036C85 157.554 87.6116 154.942 91.0938 154.362L89.3527 153.781C85.8705 152.33 83.8393 148.268 85.2902 144.786ZM168.281 111.996C169.442 125.924 165.089 138.982 157.254 148.848L131.138 137.241C131.138 136.661 131.429 136.08 131.429 135.5C131.429 134.92 131.138 134.339 131.138 133.469L167.121 107.353C167.411 108.804 167.991 110.254 168.281 111.996ZM122.143 148.848C123.884 147.978 125.625 147.107 127.076 145.656L150.29 155.812C142.746 162.487 132.879 166.839 122.143 168V148.848ZM164.219 97.7768L126.496 125.344C124.174 123.022 120.982 121.571 117.21 121.571H112.567V65.8571H115.179C136.652 65.8571 156.384 78.9152 164.219 97.7768Z" fill="white" fill-opacity="0.3"/>
</svg>
