<svg width="100" height="100" viewBox="0 0 100 100" fill="none" xmlns="http://www.w3.org/2000/svg">
<path d="M16.76 72.9598L31.1213 66.224C37.4758 63.3009 42.6865 58.3443 46.2451 51.8627L49.0411 46.7791C52.9809 39.5349 58.8271 33.9429 65.9442 30.6385L79.2888 24.411L74.8406 19.5816C73.4426 18.0565 71.282 17.5481 69.3757 18.4378L57.5562 23.9027C51.0746 26.9529 45.7367 32.0365 42.0511 38.6452L39.3822 43.4747C35.9507 49.8292 30.8671 54.6587 24.7667 57.4547L16.1245 61.5216C14.5994 62.1571 13.4556 63.5551 13.0743 65.3343C12.8202 67.2407 13.2014 69.02 14.4723 70.418L16.76 72.9598ZM84.7537 30.6385C86.0246 32.0365 86.4059 33.8158 86.1517 35.7221C85.7704 37.5014 84.6266 38.8994 83.2286 39.5349L74.4593 43.6018C68.3589 46.3978 63.2753 51.2272 59.8438 57.5818L57.1749 62.4113C53.4893 69.02 48.1515 74.1036 41.6698 77.1538L29.8504 82.6187C29.2149 82.8729 28.5794 83 27.944 83C26.546 83 25.2751 82.4916 24.3854 81.4749L19.556 76.1371L32.9005 69.9096C39.8905 66.7323 45.7367 61.1403 49.8036 53.7691L52.5996 48.6854C56.1582 42.2038 61.3689 37.2472 67.5964 34.3241L82.0848 27.5883L84.7537 30.6385Z" fill="#227C88"/>
</svg>
