<svg width="100" height="100" viewBox="0 0 100 100" fill="none" xmlns="http://www.w3.org/2000/svg">
<path d="M51.7857 60.7857H46.9978C33.2143 60.7857 21.8973 50.7746 19.5759 37.5714H19.2857C14.0625 37.5714 10 33.5089 10 28.2857C10 23.2076 14.0625 19 19.2857 19H72.6786C73.8393 19 75 20.1607 75 21.3214C75 22.6272 73.8393 23.6429 72.6786 23.6429H19.2857C16.6741 23.6429 14.6429 25.8192 14.6429 28.2857C14.6429 30.8973 16.6741 32.9286 19.2857 32.9286H51.7857V60.7857ZM37.8571 45.6964C39.7433 45.6964 41.3393 44.2455 41.3393 42.2143C41.3393 40.3281 39.7433 38.7321 37.8571 38.7321C35.8259 38.7321 34.375 40.3281 34.375 42.2143C34.375 44.2455 35.8259 45.6964 37.8571 45.6964ZM42.6451 72.3929C43.3705 70.5067 45.4018 69.6362 47.1429 70.3616L56.4286 73.8437V84H45.9821C43.9509 84 42.5 82.5491 42.5 80.5179C42.5 78.7768 43.8058 77.471 45.5469 77.1808L44.6763 76.8906C42.9353 76.1652 41.9196 74.1339 42.6451 72.3929ZM84.1406 55.9978C84.721 62.9621 82.5446 69.4911 78.6272 74.4241L65.5692 68.6205C65.5692 68.3304 65.7143 68.0402 65.7143 67.75C65.7143 67.4598 65.5692 67.1696 65.5692 66.7344L83.5603 53.6763C83.7054 54.4018 83.9955 55.1272 84.1406 55.9978ZM61.0714 74.4241C61.942 73.9888 62.8125 73.5536 63.5379 72.8281L75.1451 77.9062C71.3728 81.2433 66.4397 83.4196 61.0714 84V74.4241ZM82.1094 48.8884L63.2478 62.6719C62.0871 61.5112 60.4911 60.7857 58.6049 60.7857H56.2835V32.9286H57.5893C68.3259 32.9286 78.192 39.4576 82.1094 48.8884Z" fill="#227C88"/>
</svg>
