<svg width="100" height="100" viewBox="0 0 100 100" fill="none" xmlns="http://www.w3.org/2000/svg">
<path d="M34.1388 55.6895H66.5119L53.9435 81.7148C53.6896 82.4766 53.1818 82.9844 52.4201 83.4922C51.7853 83.873 51.1506 84 50.3888 84C49.5002 84 48.8654 83.873 48.2306 83.4922C47.4689 82.9844 46.9611 82.4766 46.7072 81.7148L34.1388 55.6895ZM70.9552 39.8203C71.717 40.2012 72.3517 40.582 72.8595 41.2168C73.4943 41.7246 73.8752 42.4863 74.256 43.1211C74.5099 43.8828 74.6369 44.6445 74.7638 45.5332C74.7638 46.2949 74.5099 47.0566 74.256 47.8184C73.8752 48.5801 73.4943 49.2148 72.9865 49.8496C72.3517 50.3574 71.717 50.8652 70.9552 51.1191C70.1935 51.373 69.4318 51.627 68.6701 51.627H31.9806C30.4572 51.627 28.8068 50.9922 27.6642 49.8496C26.6486 48.707 25.8869 47.0566 26.0138 45.5332C26.0138 43.8828 26.6486 42.3594 27.7912 41.2168C28.9338 40.0742 30.4572 39.4395 32.1076 39.4395H32.2345C32.1076 38.6777 32.1076 38.043 32.1076 37.2812C32.1076 32.457 34.0119 27.8867 37.4396 24.459C40.8674 21.0312 45.4377 19 50.2619 19C55.2131 19 59.7834 21.0312 63.2111 24.459C66.6388 27.8867 68.5431 32.457 68.5431 37.2812C68.5431 38.043 68.5431 38.6777 68.4162 39.4395H68.5431C69.4318 39.4395 70.1935 39.5664 70.9552 39.8203Z" fill="#227C88"/>
</svg>
