<svg width="100" height="100" viewBox="0 0 100 100" fill="none" xmlns="http://www.w3.org/2000/svg">
<path d="M58.8219 34.9096C66.5575 38.714 69.8546 48.2249 66.0502 55.9605C64.4017 59.2576 61.8654 61.7939 58.8219 63.1888L45.887 69.5295L38.6587 62.3012C37.8978 61.5403 36.5029 61.5403 35.742 62.3012C34.9811 63.062 34.9811 64.457 35.742 65.2178L41.9558 71.4317L25.0897 79.6745C23.6948 80.4354 21.9194 79.8013 21.2853 78.4064C20.9049 77.6455 20.9049 76.631 21.2853 75.8701L37.5174 42.5184L43.7312 48.9858C44.1116 49.3663 44.6189 49.4931 45.1261 49.4931C45.7602 49.4931 46.2674 49.3663 46.6479 48.9858C47.4088 48.2249 47.4088 46.83 46.6479 46.0691L39.6732 39.0944C44.2384 33.6415 52.1008 31.6125 58.8219 34.9096ZM70.4887 30.4712C75.5612 28.0617 81.775 29.3298 85.9598 34.2755C80.6337 40.743 72.2641 40.9966 66.5575 35.29L65.543 34.2755C59.8364 28.6958 60.09 20.3261 66.5575 15C71.63 19.1848 72.8981 25.2718 70.4887 30.4712Z" fill="#227C88"/>
</svg>
