<svg width="100" height="100" viewBox="0 0 100 100" fill="none" xmlns="http://www.w3.org/2000/svg">
<path d="M66.6577 33.25C76.814 33.25 80.7495 43.9141 80.6226 53.5625C80.7495 66.5117 72.6245 82 60.437 82C56.3745 82 54.3433 79.9687 52.312 79.9687C50.2808 79.9687 48.2495 82 44.187 82C31.9995 82 23.8745 66.2578 24.0015 53.5625C24.0015 43.7871 28.064 33.25 38.2202 33.25C42.2827 33.377 48.2495 35.4082 52.439 37.4395C56.3745 35.4082 62.5952 33.25 66.6577 33.25ZM64.6265 21.0625C64.6265 26.7754 60.0562 31.2187 54.4702 31.2187H50.4077V27.1562C50.4077 21.5703 54.8511 17 60.564 17H64.6265V21.0625Z" fill="#227C88"/>
</svg>
