<svg width="100" height="100" viewBox="0 0 100 100" fill="none" xmlns="http://www.w3.org/2000/svg">
<path d="M50 19C64.2187 19 76 43.6458 76 58C76 72.4896 64.2187 84 50 84C35.5104 84 24 72.3542 24 58C24 43.6458 35.6458 19 50 19ZM45.6667 35.5208C46.3437 34.7083 46.2083 33.3542 45.2604 32.5417C44.3125 31.8646 42.9583 32 42.2812 32.8125C37.5417 38.6354 32.6667 49.4687 32.6667 58C32.6667 59.2187 33.6146 60.1667 34.8333 60.1667C35.9167 60.1667 37 59.2187 37 58C37 50.6875 41.3333 40.9375 45.6667 35.5208Z" fill="#227C88"/>
</svg>
