<svg width="100" height="100" viewBox="0 0 100 100" fill="none" xmlns="http://www.w3.org/2000/svg">
<path d="M38.8966 21.3621C38.8966 19.5409 40.2974 18 42.2586 18H44.5C46.3211 18 47.8621 19.5409 47.8621 21.3621C47.8621 23.3233 46.3211 24.7241 44.5 24.7241H42.2586C40.2974 24.7241 38.8966 23.3233 38.8966 21.3621ZM38.8966 32.569C38.8966 30.7478 40.2974 29.2069 42.2586 29.2069H44.5C46.3211 29.2069 47.8621 30.7478 47.8621 32.569C47.8621 34.5302 46.3211 35.931 44.5 35.931H42.2586C40.2974 35.931 38.8966 34.5302 38.8966 32.569ZM12 43.7759C12 41.9547 13.4009 40.4138 15.3621 40.4138H17.6034C19.4246 40.4138 20.9655 41.9547 20.9655 43.7759C20.9655 45.7371 19.4246 47.1379 17.6034 47.1379H15.3621C13.4009 47.1379 12 45.7371 12 43.7759ZM84.2845 51.6207C86.3858 51.6207 88.2069 53.4418 88.2069 55.5431C88.2069 65.7694 81.4828 74.4547 72.2371 77.3965C72.3772 77.8168 72.5172 78.2371 72.5172 78.5172C72.5172 81.0388 70.4159 83 68.0345 83H32.1724C29.6509 83 27.6897 81.0388 27.6897 78.5172C27.6897 78.2371 27.6897 77.8168 27.8297 77.3965C18.5841 74.4547 12 65.7694 12 55.5431C12 53.4418 13.681 51.6207 15.7823 51.6207H84.2845ZM44.5 40.4138C46.3211 40.4138 47.8621 41.9547 47.8621 43.7759C47.8621 45.7371 46.3211 47.1379 44.5 47.1379H42.2586C40.2974 47.1379 38.8966 45.7371 38.8966 43.7759C38.8966 41.9547 40.2974 40.4138 42.2586 40.4138H44.5ZM31.0517 40.4138C32.8728 40.4138 34.4138 41.9547 34.4138 43.7759C34.4138 45.7371 32.8728 47.1379 31.0517 47.1379H28.8103C26.8491 47.1379 25.4483 45.7371 25.4483 43.7759C25.4483 41.9547 26.8491 40.4138 28.8103 40.4138H31.0517ZM25.4483 32.569C25.4483 30.7478 26.8491 29.2069 28.8103 29.2069H31.0517C32.8728 29.2069 34.4138 30.7478 34.4138 32.569C34.4138 34.5302 32.8728 35.931 31.0517 35.931H28.8103C26.8491 35.931 25.4483 34.5302 25.4483 32.569ZM57.9483 40.4138C59.7694 40.4138 61.3103 41.9547 61.3103 43.7759C61.3103 45.7371 59.7694 47.1379 57.9483 47.1379H55.7069C53.7457 47.1379 52.3448 45.7371 52.3448 43.7759C52.3448 41.9547 53.7457 40.4138 55.7069 40.4138H57.9483ZM52.3448 32.569C52.3448 30.7478 53.7457 29.2069 55.7069 29.2069H57.9483C59.7694 29.2069 61.3103 30.7478 61.3103 32.569C61.3103 34.5302 59.7694 35.931 57.9483 35.931H55.7069C53.7457 35.931 52.3448 34.5302 52.3448 32.569ZM71.3965 40.4138C73.2177 40.4138 74.7586 41.9547 74.7586 43.7759C74.7586 45.7371 73.2177 47.1379 71.3965 47.1379H69.1552C67.194 47.1379 65.7931 45.7371 65.7931 43.7759C65.7931 41.9547 67.194 40.4138 69.1552 40.4138H71.3965ZM65.7931 32.569C65.7931 30.7478 67.194 29.2069 69.1552 29.2069H71.3965C73.2177 29.2069 74.7586 30.7478 74.7586 32.569C74.7586 34.5302 73.2177 35.931 71.3965 35.931H69.1552C67.194 35.931 65.7931 34.5302 65.7931 32.569ZM84.8448 40.4138C86.6659 40.4138 88.2069 41.9547 88.2069 43.7759C88.2069 45.7371 86.6659 47.1379 84.8448 47.1379H82.6034C80.6422 47.1379 79.2414 45.7371 79.2414 43.7759C79.2414 41.9547 80.6422 40.4138 82.6034 40.4138H84.8448ZM57.9483 18C59.7694 18 61.3103 19.5409 61.3103 21.3621C61.3103 23.3233 59.7694 24.7241 57.9483 24.7241H55.7069C53.7457 24.7241 52.3448 23.3233 52.3448 21.3621C52.3448 19.5409 53.7457 18 55.7069 18H57.9483Z" fill="#227C88"/>
</svg>
