<svg width="82" height="82" viewBox="0 0 82 82" fill="none" xmlns="http://www.w3.org/2000/svg">
<rect x="0.00488281" width="81.9902" height="81.9902" rx="4" fill="#DD3F65"/>
<path d="M57.3013 28.9471C56.365 29.9874 54.8044 29.9874 53.8681 28.9471C52.8277 28.0107 52.8277 26.4501 53.8681 25.5138L63.0235 16.3584C63.9598 15.318 65.5204 15.318 66.4567 16.3584C67.4971 17.2948 67.4971 18.8553 66.4567 19.7917L57.3013 28.9471ZM49.0763 40.5934C48.5024 40.0194 47.5742 40.0121 46.9912 40.5768C46.0863 41.4535 46.6116 43.0632 47.8007 43.4799C49.6239 44.1189 51.355 45.1609 52.8277 46.6336C54.1079 47.972 54.1079 50.0809 52.8277 51.4193C48.8742 55.2688 42.6319 55.2688 38.6785 51.4193L38.4913 51.2165C37.9122 50.5892 36.9274 50.5695 36.3237 51.1732C35.4304 52.0665 35.9685 53.6671 37.1616 54.0824C38.9948 54.7205 40.7358 55.7655 42.2158 57.2455L42.2672 57.2969C43.5519 58.5816 43.5287 60.6714 42.2158 61.9272C38.3664 65.8807 32.02 65.8807 28.0666 61.9272C27.3771 61.2377 26.2592 61.2377 25.5696 61.9272L19.6395 67.8574C18.391 69.2099 16.2062 69.2099 14.9577 67.8574C13.6052 66.6089 13.6052 64.4241 14.9577 63.1757L20.992 57.1414C21.624 56.5094 21.624 55.4847 20.992 54.8526C17.1425 51.0032 17.1425 44.6568 20.992 40.8074C22.3135 39.4859 24.4562 39.4859 25.7777 40.8074C27.2012 42.2309 28.2272 43.8751 28.8557 45.6539C29.2624 46.8048 30.8079 47.3255 31.671 46.4624C32.2575 45.8759 32.2347 44.9182 31.621 44.3603L31.6039 44.3447C27.7545 40.3913 27.7545 34.0449 31.6039 30.1955L31.6553 30.1441C32.94 28.8594 35.0298 28.8827 36.2856 30.1955C37.7021 31.612 38.7688 33.2472 39.4288 35.016C39.8554 36.159 41.4236 36.6669 42.272 35.7902C42.8181 35.2259 42.8108 34.3278 42.2554 33.7725L42.2158 33.7328C38.3664 29.7794 38.3664 23.5371 42.2158 19.5836L42.2672 19.5322C43.5519 18.2475 45.6417 18.2707 46.8975 19.5836C47.6505 20.3365 48.9105 20.394 49.6717 19.6494L53.0358 16.3584C53.9721 15.318 55.5327 15.318 56.469 16.3584C57.5094 17.2948 57.5094 18.8553 56.469 19.7917L51.5481 24.7975C50.8554 25.5021 50.5955 26.5114 50.7132 27.4925C50.7236 27.5792 50.7332 27.6661 50.742 27.7531C50.9587 29.8979 53.1323 31.9892 55.2757 32.2187C56.2282 32.3206 57.1956 32.0699 57.873 31.3925L63.0235 26.2421C63.9598 25.3057 65.5204 25.3057 66.4567 26.2421C67.4971 27.2824 67.4971 28.843 66.4567 29.7794L63.231 33.0752C62.4207 33.9031 62.6205 35.2025 63.4396 36.0217C64.7198 37.3601 64.7198 39.469 63.4396 40.8074C59.4862 44.6568 53.1398 44.6568 49.2904 40.8074L49.0763 40.5934Z" fill="white" fill-opacity="0.3"/>
</svg>
